PathFileType	4	(x/y/z)	S09_P20_T14
DataRate	CameraRate	NumFrames	NumMarkers	Units	OrigDataRate	OrigDataStartFrame	OrigNumFrames
240	240	8	51	mm	240	1	398
Frame#	Time	Sternum			R.Acromium			L.Acromium			Top.Head			R.ASIS			L.ASIS			R.PSIS			L.PSIS			R.Great.Tro			L.Great.Tro			R.Iliac.Crest			L.Iliac.Crest			V.Sacral			R.Thigh.Upper.Post			R.Thigh.Lower.Ant			R.Thigh.Lower.Post			R.Thigh.Upper.Ant			R.Knee.Lat			R.Knee.Med			R.Shank.Upper.Post			R.Shank.Lower.Ant			R.Shank.Lower.Post			R.Shank.Upper.Ant			R.Ankle.Lat			R.Ankle.Med			R.Heel.Upper			R.Heel.Med			R.Heel.Lat			R.Toe.Lat			R.Toe.Med			R.Toe.Tip			L.Thigh.Upper.Post			L.Thigh.Lower.Ant			L.Thigh.Lower.Post			L.Thigh.Upper.Ant			L.Knee.Lat			L.Knee.Med			L.Shank.Upper.Post			L.Shank.Lower.Ant			L.Shank.Lower.Post			L.Shank.Upper.Ant			L.Ankle.Lat			L.Ankle.Med			L.Heel.Upper			L.Heel.Med			L.Heel.Lat			L.Toe.Lat			L.Toe.Med			L.Toe.Tip			Cervical.Spine			Back			
		X1	Y1	Z1	X2	Y2	Z2	X3	Y3	Z3	X4	Y4	Z4	X5	Y5	Z5	X6	Y6	Z6	X7	Y7	Z7	X8	Y8	Z8	X9	Y9	Z9	X10	Y10	Z10	X11	Y11	Z11	X12	Y12	Z12	X13	Y13	Z13	X14	Y14	Z14	X15	Y15	Z15	X16	Y16	Z16	X17	Y17	Z17	X18	Y18	Z18	X19	Y19	Z19	X20	Y20	Z20	X21	Y21	Z21	X22	Y22	Z22	X23	Y23	Z23	X24	Y24	Z24	X25	Y25	Z25	X26	Y26	Z26	X27	Y27	Z27	X28	Y28	Z28	X29	Y29	Z29	X30	Y30	Z30	X31	Y31	Z31	X32	Y32	Z32	X33	Y33	Z33	X34	Y34	Z34	X35	Y35	Z35	X36	Y36	Z36	X37	Y37	Z37	X38	Y38	Z38	X39	Y39	Z39	X40	Y40	Z40	X41	Y41	Z41	X42	Y42	Z42	X43	Y43	Z43	X44	Y44	Z44	X45	Y45	Z45	X46	Y46	Z46	X47	Y47	Z47	X48	Y48	Z48	X49	Y49	Z49	X50	Y50	Z50	X51	Y51	Z51	

1	0	NaN	NaN	NaN	-1497.7	1437.2	517.7	-1515.8	1426.6	205.13	-1468.2	1736.1	361.09	NaN	NaN	NaN	NaN	NaN	NaN	-1653.8	1047.4	402.94	-1650	1043	313.43	-1525.3	931.98	552.13	NaN	NaN	NaN	-1510.1	1093.9	519.97	-1539.4	1110.6	200.73	-1670.3	1011.2	355.26	NaN	NaN	NaN	-1533.5	580.58	475.57	-1613.2	605.72	489.18	-1510	665.74	501.59	-1589.4	509.06	465.85	NaN	NaN	NaN	-1726.3	375.3	471.65	NaN	NaN	NaN	NaN	NaN	NaN	NaN	NaN	NaN	NaN	NaN	NaN	NaN	NaN	NaN	-1887	118.42	391.68	-1881.7	84.484	363.68	NaN	NaN	NaN	NaN	NaN	NaN	-1685.8	46.887	370.72	NaN	NaN	NaN	-1495.2	662.16	212.46	NaN	NaN	NaN	-1457.5	582.04	230.1	-1435.1	671.28	181.09	-1378.3	514.45	219.51	-1359.1	531.2	351.2	-1375.2	373.37	212.34	-1282.6	312.74	220.25	-1347.3	301.13	218.32	-1311.7	384.66	215.27	-1244.8	116.65	241.3	-1222.4	129.69	332.99	-1288.3	56.766	303.15	NaN	NaN	NaN	NaN	NaN	NaN	-1122	93.031	207.71	-1089.8	129.84	309.96	-1055.6	160.14	245.85	-1587.2	1478.5	374.96	-1636.4	1215.9	367.75
2	0.0041667	NaN	NaN	NaN	-1493	1436.5	517.08	-1511	1426	204.54	-1463.4	1735.5	360.69	NaN	NaN	NaN	NaN	NaN	NaN	-1648.7	1046.5	402.5	-1644.7	1042	312.99	-1520	931.18	551.67	NaN	NaN	NaN	-1504.9	1093.1	519.57	-1534.3	1109.9	200.25	-1665	1010.3	354.81	NaN	NaN	NaN	-1527.4	579.95	475.13	-1607.5	604.7	488.73	-1504.6	664.86	501.18	-1583.6	507.98	465.57	NaN	NaN	NaN	-1721.4	375.55	471.6	NaN	NaN	NaN	-1755.1	307.44	459.84	NaN	NaN	NaN	NaN	NaN	NaN	NaN	NaN	NaN	-1885.5	120.82	391.46	-1880.7	86.904	363.45	NaN	NaN	NaN	NaN	NaN	NaN	-1685.4	46.844	370.76	NaN	NaN	NaN	-1489.4	661.51	212.47	NaN	NaN	NaN	-1451.4	581.37	230.37	-1429.3	670.64	181.28	-1372.4	513.66	219.89	-1353	531	351.37	-1370.7	372.7	212.69	-1279	311.09	220.82	-1343.7	300.2	218.75	-1307.3	383.31	215.77	-1242.9	115.4	241.8	-1220.7	127.7	333.32	-1286.9	56.976	303.35	-1265.7	45.09	332.82	NaN	NaN	NaN	-1120.6	90.532	208.28	-1087.9	126.62	310.48	-1053.3	156.74	246.47	-1582.4	1477.8	374.39	-1631.3	1215.1	367.18
3	0.0083333	NaN	NaN	NaN	-1488.2	1435.8	516.44	-1506	1425.4	203.92	-1458.5	1734.8	360.27	NaN	NaN	NaN	NaN	NaN	NaN	-1643.2	1045.6	402.02	-1639.1	1041	312.51	-1514.5	930.35	551.17	NaN	NaN	NaN	-1499.5	1092.4	519.13	-1528.9	1109.2	199.74	-1659.4	1009.3	354.31	NaN	NaN	NaN	-1521	579.26	474.69	-1601.4	603.62	488.27	-1498.9	663.95	500.76	-1577.5	506.85	465.31	NaN	NaN	NaN	-1716.3	375.82	471.57	NaN	NaN	NaN	-1751.3	308.29	459.71	NaN	NaN	NaN	NaN	NaN	NaN	NaN	NaN	NaN	-1883.9	123.39	391.24	-1879.6	89.504	363.2	NaN	NaN	NaN	NaN	NaN	NaN	-1685	46.797	370.81	NaN	NaN	NaN	-1483.3	660.86	212.45	NaN	NaN	NaN	-1445.2	580.7	230.62	-1423.2	669.98	181.47	-1366.4	512.86	220.26	-1346.7	530.75	351.53	-1366.1	372.02	213.04	-1275.2	309.43	221.4	-1339.9	299.25	219.19	-1302.7	381.95	216.28	-1241	114.14	242.32	-1218.8	125.68	333.68	-1285.6	57.22	303.55	-1264.6	44.733	333.34	NaN	NaN	NaN	-1119.1	87.941	208.89	-1086	123.24	311.04	-1050.8	153.15	247.14	-1577.4	1477.1	373.8	-1626.1	1214.2	366.57
4	0.0125	NaN	NaN	NaN	-1483.2	1435	515.78	-1500.8	1424.8	203.27	-1453.4	1734.1	359.83	NaN	NaN	NaN	NaN	NaN	NaN	-1637.6	1044.6	401.5	-1633.2	1040	311.99	-1508.8	929.5	550.66	NaN	NaN	NaN	-1494	1091.6	518.67	-1523.4	1108.4	199.19	-1653.6	1008.3	353.77	NaN	NaN	NaN	-1514.4	578.53	474.27	-1595	602.49	487.82	-1492.9	663	500.35	-1571.2	505.68	465.07	NaN	NaN	NaN	-1710.9	376.12	471.56	NaN	NaN	NaN	-1747.3	309.21	459.58	NaN	NaN	NaN	NaN	NaN	NaN	NaN	NaN	NaN	-1882.2	126.13	391.01	-1878.3	92.285	362.92	NaN	NaN	NaN	NaN	NaN	NaN	-1684.5	46.745	370.86	NaN	NaN	NaN	-1477.1	660.21	212.42	NaN	NaN	NaN	-1438.8	580.02	230.85	-1416.9	669.31	181.66	-1360.2	512.05	220.61	-1340.3	530.47	351.68	-1361.3	371.33	213.4	-1271.2	307.78	221.98	-1335.9	298.3	219.62	-1298	380.59	216.79	-1238.9	112.89	242.84	-1216.8	123.64	334.06	-1284.1	57.5	303.76	-1263.4	44.398	333.85	NaN	NaN	NaN	-1117.5	85.282	209.54	-1084.1	119.72	311.63	-1048.3	149.4	247.85	-1572.3	1476.3	373.18	-1620.6	1213.3	365.93
5	0.016667	NaN	NaN	NaN	-1478	1434.3	515.1	-1495.4	1424.2	202.61	-1448.1	1733.5	359.37	NaN	NaN	NaN	NaN	NaN	NaN	-1631.8	1043.7	400.94	-1627.2	1039	311.42	-1502.9	928.64	550.12	NaN	NaN	NaN	-1488.3	1090.8	518.19	-1517.6	1107.6	198.61	-1647.7	1007.3	353.18	NaN	NaN	NaN	-1507.5	577.74	473.88	-1588.3	601.33	487.36	-1486.7	662.03	499.96	-1564.5	504.48	464.85	NaN	NaN	NaN	-1705.3	376.45	471.57	NaN	NaN	NaN	-1743.1	310.19	459.47	NaN	NaN	NaN	NaN	NaN	NaN	-1781.8	137.51	353.22	-1880.3	129.04	390.78	-1876.9	95.252	362.63	NaN	NaN	NaN	-1684.4	22.912	458.97	-1684.1	46.691	370.91	NaN	NaN	NaN	-1470.8	659.56	212.36	NaN	NaN	NaN	-1432.4	579.35	231.03	-1410.5	668.65	181.84	-1353.9	511.25	220.93	-1333.9	530.13	351.82	-1356.4	370.65	213.76	-1267.1	306.16	222.56	-1331.8	297.37	220.06	-1293.1	379.25	217.28	-1236.7	111.66	243.35	-1214.7	121.61	334.46	-1282.6	57.819	303.97	-1262.2	44.093	334.36	NaN	NaN	NaN	-1115.9	82.578	210.22	-1082	116.09	312.26	-1045.6	145.5	248.61	-1567	1475.5	372.54	-1615	1212.4	365.25
6	0.020833	NaN	NaN	NaN	-1472.7	1433.5	514.41	-1490	1423.6	201.92	-1442.8	1732.8	358.91	NaN	NaN	NaN	NaN	NaN	NaN	-1625.9	1042.7	400.33	-1621.1	1038	310.8	-1496.8	927.78	549.55	NaN	NaN	NaN	-1482.4	1090.1	517.68	-1511.7	1106.9	197.99	-1641.7	1006.4	352.55	NaN	NaN	NaN	-1500.4	576.9	473.53	-1581.4	600.13	486.93	-1480.3	661.03	499.58	-1557.6	503.25	464.67	NaN	NaN	NaN	-1699.4	376.81	471.61	NaN	NaN	NaN	-1738.7	311.25	459.37	NaN	NaN	NaN	NaN	NaN	NaN	-1779.7	139.08	353.27	-1878.3	132.12	390.54	-1875.4	98.41	362.32	NaN	NaN	NaN	-1684.1	23.027	458.36	-1683.6	46.636	370.97	NaN	NaN	NaN	-1464.3	658.93	212.27	NaN	NaN	NaN	-1425.9	578.69	231.17	-1404	667.99	182	-1347.5	510.46	221.21	-1327.5	529.75	351.95	-1351.4	369.98	214.1	-1262.8	304.6	223.12	-1327.5	296.47	220.48	-1288	377.95	217.76	-1234.4	110.47	243.86	-1212.5	119.62	334.87	-1281.1	58.179	304.18	-1261	43.824	334.85	NaN	NaN	NaN	-1114.3	79.85	210.94	-1079.9	112.36	312.92	-1042.8	141.47	249.41	-1561.7	1474.8	371.88	-1609.3	1211.5	364.55
7	0.025	NaN	NaN	NaN	-1467.4	1432.7	513.7	-1484.4	1423	201.22	-1437.4	1732.2	358.44	NaN	NaN	NaN	NaN	NaN	NaN	-1619.8	1041.7	399.68	-1614.9	1037.1	310.14	-1490.7	926.93	548.97	NaN	NaN	NaN	-1476.5	1089.3	517.14	-1505.7	1106.2	197.34	-1635.5	1005.4	351.87	NaN	NaN	NaN	-1493	576.01	473.22	-1574.3	598.9	486.51	-1473.7	660.02	499.24	-1550.5	502.01	464.54	NaN	NaN	NaN	-1693.4	377.2	471.68	NaN	NaN	NaN	-1734	312.38	459.29	NaN	NaN	NaN	NaN	NaN	NaN	-1777.4	140.76	353.35	-1876.1	135.38	390.31	-1873.7	101.76	361.98	NaN	NaN	NaN	-1683.8	23.26	457.8	-1683	46.583	371.03	NaN	NaN	NaN	-1457.8	658.32	212.14	NaN	NaN	NaN	-1419.4	578.06	231.25	-1397.3	667.35	182.15	-1341.1	509.7	221.45	-1321.1	529.33	352.05	-1346.4	369.33	214.44	-1258.4	303.1	223.66	-1323.1	295.6	220.88	-1282.9	376.7	218.22	-1232	109.32	244.35	-1210.3	117.68	335.3	-1279.5	58.579	304.39	-1259.8	43.6	335.31	NaN	NaN	NaN	-1112.6	77.115	211.67	-1077.8	108.57	313.62	-1040	137.33	250.24	-1556.2	1474	371.21	-1603.5	1210.6	363.82
8	0.029167	NaN	NaN	NaN	-1461.9	1431.9	512.99	-1478.8	1422.4	200.5	-1431.9	1731.5	357.96	NaN	NaN	NaN	NaN	NaN	NaN	-1613.7	1040.8	398.98	-1608.5	1036.1	309.43	-1484.5	926.08	548.36	NaN	NaN	NaN	-1470.5	1088.6	516.58	-1499.5	1105.5	196.65	-1629.2	1004.4	351.14	NaN	NaN	NaN	-1485.6	575.07	472.97	-1566.9	597.64	486.12	-1466.9	659	498.94	-1543.1	500.76	464.46	NaN	NaN	NaN	-1687.1	377.64	471.78	NaN	NaN	NaN	-1729.2	313.58	459.23	NaN	NaN	NaN	NaN	NaN	NaN	-1774.9	142.54	353.46	-1873.6	138.81	390.08	-1871.8	105.31	361.63	NaN	NaN	NaN	-1683.7	23.637	457.31	-1682.5	46.534	371.1	NaN	NaN	NaN	-1451.3	657.75	211.96	NaN	NaN	NaN	-1412.8	577.46	231.26	-1390.6	666.74	182.28	-1334.7	508.98	221.65	-1314.8	528.87	352.14	-1341.2	368.72	214.75	-1253.9	301.69	224.17	-1318.6	294.79	221.26	-1277.7	375.51	218.65	-1229.6	108.24	244.82	-1208	115.81	335.73	-1278	59.018	304.6	-1258.6	43.427	335.74	NaN	NaN	NaN	-1110.9	74.393	212.42	-1075.6	104.73	314.34	-1037.2	133.11	251.11	-1550.7	1473.3	370.52	-1597.6	1209.6	363.06
